<svg xmlns="http://www.w3.org/2000/svg" version="1.1" xmlns:xlink="http://www.w3.org/1999/xlink" xmlns:svgjs="http://svgjs.com/svgjs" width="1440" height="560" preserveAspectRatio="none" viewBox="0 0 1440 560"><g mask="url(&quot;#SvgjsMask1001&quot;)" fill="none"><rect width="1440" height="560" x="0" y="0" fill="#0e2a47"></rect><path d="M -725.409531328696,406 C -629.41,363.2 -437.41,175.8 -245.4095313286959,192 C -53.41,208.2 42.59,505.2 234.5904686713041,487 C 426.59,468.8 522.59,126.4 714.590468671304,101 C 906.59,75.6 1049.51,325.4 1194.590468671304,360 C 1339.67,394.6 1390.92,291.2 1440,274" stroke="rgba(51, 121, 194, 0.58)" stroke-width="2"></path><path d="M -25.146598822074168,343 C 70.85,292.6 262.85,79.8 454.85340117792583,91 C 646.85,102.2 742.85,367.2 934.8534011779259,399 C 1126.85,430.8 1222.85,235.4 1414.853401177926,250 C 1606.85,264.6 1889.82,507 1894.853401177926,472 C 1899.88,437 1530.97,154.4 1440,75" stroke="rgba(51, 121, 194, 0.58)" stroke-width="2"></path><path d="M -858.1498437255785,416 C -762.15,357 -570.15,130.2 -378.14984372557853,121 C -186.15,111.8 -90.15,339.4 101.85015627442147,370 C 293.85,400.6 389.85,278.8 581.8501562744215,274 C 773.85,269.2 890.22,366.8 1061.8501562744214,346 C 1233.48,325.2 1364.37,205.2 1440,170" stroke="rgba(51, 121, 194, 0.58)" stroke-width="2"></path><path d="M -569.8480867760472,483 C -473.85,428 -281.85,212.4 -89.84808677604721,208 C 102.15,203.6 198.15,466.4 390.15191322395276,461 C 582.15,455.6 678.15,187.4 870.1519132239528,181 C 1062.15,174.6 1236.18,439.8 1350.1519132239528,429 C 1464.12,418.2 1422.03,187.4 1440,127" stroke="rgba(51, 121, 194, 0.58)" stroke-width="2"></path><path d="M -655.86400754379,232 C -559.86,274.6 -367.86,455 -175.86400754379,445 C 16.14,435 112.14,209.6 304.13599245621003,182 C 496.14,154.4 592.14,288.8 784.13599245621,307 C 976.14,325.2 1132.96,246.4 1264.13599245621,273 C 1395.31,299.6 1404.83,406.6 1440,440" stroke="rgba(51, 121, 194, 0.58)" stroke-width="2"></path></g><defs><mask id="SvgjsMask1001"><rect width="1440" height="560" fill="#ffffff"></rect></mask></defs></svg>